HIERARCHY
ROOT pelvis
{
  OFFSET 8.7141 87.0142 -67.1449
  CHANNELS 6 Xposition Yposition Zposition Zrotation Xrotation Yrotation
  JOINT lfemur
  {
    OFFSET 0 11.9945 0
    CHANNELS 3 Zrotation Xrotation Yrotation
    JOINT ltibia
    {
      OFFSET 0 0 -41.4872
      CHANNELS 3 Zrotation Xrotation Yrotation
      JOINT lfoot
      {
        OFFSET 0 0 -39.7538
        CHANNELS 3 Zrotation Xrotation Yrotation
        JOINT ltoes
        {
          OFFSET 15.4382 0 0
          CHANNELS 3 Zrotation Xrotation Yrotation
          End Site
          {
            OFFSET 0 0 0
          }
        }
      }
    }
  }
  JOINT rfemur
  {
    OFFSET 0 -11.9945 0
    CHANNELS 3 Zrotation Xrotation Yrotation
    JOINT rtibia
    {
      OFFSET 0 0 -41.4872
      CHANNELS 3 Zrotation Xrotation Yrotation
      JOINT rfoot
      {
        OFFSET 0 0 -39.7538
        CHANNELS 3 Zrotation Xrotation Yrotation
        JOINT rtoes
        {
          OFFSET 15.4382 0 0
          CHANNELS 3 Zrotation Xrotation Yrotation
          End Site
          {
            OFFSET 0 0 0
          }
        }
      }
    }
  }
  JOINT thorax
  {
    OFFSET 1.67697 -2.25305 8.98052
    CHANNELS 3 Zrotation Xrotation Yrotation
    JOINT head
    {
      OFFSET 4.64946 -2.7802 47.6674
      CHANNELS 3 Zrotation Xrotation Yrotation
      End Site
      {
        OFFSET 0 0 0
      }
    }
    JOINT lclavicle
    {
      OFFSET 0 0 42.6193
      CHANNELS 3 Zrotation Xrotation Yrotation
      JOINT lhumerus
      {
        OFFSET 0 19.157 -2.10407
        CHANNELS 3 Zrotation Xrotation Yrotation
        JOINT lradius
        {
          OFFSET 0 0 -26.2788
          CHANNELS 3 Zrotation Xrotation Yrotation
          JOINT lhand
          {
            OFFSET 0 0 -26.6372
            CHANNELS 3 Zrotation Xrotation Yrotation
            End Site
            {
              OFFSET 0 0 0
            }
          }
        }
      }
    }
    JOINT rclavicle
    {
      OFFSET 0 0 42.6193
      CHANNELS 3 Zrotation Xrotation Yrotation
      JOINT rhumerus
      {
        OFFSET 0 -19.157 -2.10407
        CHANNELS 3 Zrotation Xrotation Yrotation
        JOINT rradius
        {
          OFFSET 0 0 -26.2788
          CHANNELS 3 Zrotation Xrotation Yrotation
          JOINT rhand
          {
            OFFSET 0 0 -26.6372
            CHANNELS 3 Zrotation Xrotation Yrotation
            End Site
            {
              OFFSET 0 0 0
            }
          }
        }
      }
    }
  }
}
MOTION
Frames:	16
Frame Time:	0.0333333
10.9133 90.0591 -42.0517 -91.2522 66.3431 -81.1287 20.3375 7.11857 -25.3438 -9.11323e-015 -3.18055e-015 27.9225 -14.3848 -7.36111 26.5448 -1.10198e-014 6.36111e-015 -30.9399 -13.931 -11.8857 -6.89054 1.41653e-015 -1.59028e-015 19.7699 -0.947 -0.389358 22.0164 -3.66275e-015 3.49861e-014 -53.2214 -4.87764 1.25677 -9.24029 65.6639 -5.42386 4.35294 11.9409 1.06032 -0.224518 137.677 -20.7492 -39.5609 174.649 -19.7034 -105.529 -6.01325e-005 35.9466 -26.9501 7.22805 -1.94273 0.246342 42.6035 -2.1443 15.9696 2.07865 5.80594 -109.749 -9.88437e-005 -3.6776 161.517 
10.9539 90.608 -41.7408 -91.2654 66.4185 -81.0648 19.4015 7.60273 -25.0436 9.54484e-015 -4.77083e-015 26.8497 -11.9383 -5.75933 25.0122 -4.45284e-015 1.11319e-014 -30.9326 -15.4838 -10.9556 -7.26553 -2.26338e-015 1.59028e-015 19.8153 -0.312436 -0.116736 20.3767 -1.53648e-014 2.22639e-014 -57.3798 -5.01088 0.962359 -9.56201 65.8369 -4.95746 4.92744 12.2546 1.50814 -0.328246 136.564 -21.5862 -39.6179 174.803 -20.5833 -104.522 -0.000148807 35.6319 -26.8287 7.22312 -1.93293 0.244924 43.1065 -2.49765 15.7315 2.26837 6.7407 -108.701 -0.000260504 -3.90257 161.824 
11.0729 90.0546 -41.4747 -91.3055 66.4215 -81.0023 17.5702 8.59054 -24.7726 7.06817e-015 0 25.8465 -10.632 -4.86465 24.058 -1.46235e-014 1.27222e-014 -30.934 -15.4585 -10.3098 -7.69706 -6.15863e-016 1.59028e-015 21.1698 -1.69007 -0.607801 19.8671 -1.05201e-014 2.54444e-014 -56.6152 -5.1268 0.691734 -9.75532 65.9619 -4.71192 4.90604 12.2292 1.93173 -0.418046 136.079 -23.0205 -39.3639 175.101 -21.1977 -103.345 0.000319178 35.756 -26.7011 7.15562 -1.82415 0.229142 43.5356 -3.02764 15.4373 2.30078 7.27912 -107.627 9.82814e-005 -4.12231 161.864 
11.2106 88.4237 -41.2547 -91.2175 66.5227 -81.1352 16.1056 9.585 -24.9513 -3.56001e-016 -6.36111e-015 26.7451 -10.996 -4.27265 21.1004 -1.66332e-014 3.18055e-015 -30.9289 -14.3125 -10.1076 -8.22932 -3.44961e-016 -3.18055e-015 23.6173 -4.6396 -1.42513 18.0975 -8.10463e-015 1.90833e-014 -62.6502 -5.03309 0.356174 -9.72975 66.1774 -4.44528 4.41394 11.9474 2.24923 -0.474993 135.938 -24.9347 -38.8853 175.296 -22.306 -102.265 -0.00307215 36.3752 -26.8177 7.11107 -1.61774 0.201881 43.8586 -3.73828 15.2639 2.24641 7.47516 -106.782 -0.000218026 -4.163 161.724 
11.4111 86.0039 -41.0003 -90.9333 66.6464 -81.6944 16.2662 9.99464 -26.0829 2.02919e-014 -3.18055e-015 30.3551 -12.3941 -3.43738 15.2842 -1.10197e-014 6.36111e-015 -30.9282 -13.0123 -10.4146 -8.66779 -7.99113e-016 1.59028e-015 26.6795 -7.92824 -1.91492 13.7979 1.03958e-014 1.59028e-014 -75.2106 -4.95882 -0.0398494 -9.31093 66.2832 -4.49637 3.37889 11.5161 2.44308 -0.497465 136.039 -27.2439 -38.2388 175.45 -23.6184 -101.239 0.00296927 37.1919 -26.7279 7.07889 -1.3424 0.166844 44.1516 -4.65869 15.1439 2.12037 7.27874 -106.288 2.69854e-006 -4.05308 161.625 
11.6625 83.4564 -40.7671 -91.0601 66.2248 -82.1595 19.2131 9.16336 -28.7489 -3.95479e-015 0 36.4642 -12.9637 -1.72876 7.47543 -6.83341e-015 7.15625e-015 -30.9683 -13.0162 -11.2057 -8.57758 -8.93347e-016 3.18055e-015 29.6159 -9.22789 -1.11816 6.82667 -6.65088e-016 9.54166e-015 -82.0255 -5.55192 -0.398932 -8.24001 65.6779 -5.78663 1.52658 11.0677 2.55994 -0.501195 136.455 -29.8947 -37.4505 175.829 -23.7327 -100.267 0.0066357 37.55 -25.2366 6.95224 -1.05415 0.128538 44.5806 -5.84772 14.7654 1.87426 6.5014 -106.122 -5.67072e-005 -4.02192 161.92 
12.0141 81.7005 -40.486 -91.9985 65.872 -81.4677 20.569 8.87423 -30.3172 9.26847e-015 -6.36111e-015 39.1022 -12.792 -0.621989 2.68222 -1.00646e-014 7.95139e-015 -30.9973 -14.3247 -11.4569 -8.66957 2.3443e-015 -3.18055e-015 30.618 -8.72643 -0.550965 3.52137 -3.91755e-014 6.36111e-015 -85.312 -6.42392 0.297238 -7.56553 66.5028 -5.667 1.64761 10.8564 1.73427 -0.332505 136.85 -31.8453 -36.8747 176.414 -23.2324 -99.0179 0.0115687 39.5841 -24.2581 7.02299 -1.20539 0.148886 44.6188 -6.50264 14.5621 1.634 5.57604 -106.375 0.000674981 -4.08612 161.663 
12.2639 81.4897 -40.2676 -93.2856 66.1993 -80.1083 19.8395 9.28507 -30.0247 1.87779e-014 -3.18055e-015 38.4741 -11.126 -0.295881 1.52883 -9.58711e-015 8.74653e-015 -30.9925 -14.4022 -11.1511 -9.1413 -7.95739e-015 7.95139e-015 30.6983 -8.30601 -0.570717 3.93874 -2.20962e-016 6.36111e-015 -86.0211 -6.74771 1.02793 -7.40504 67.335 -5.9521 1.8911 11.2505 1.1336 -0.222729 137.978 -31.8946 -36.2098 176.852 -23.0985 -97.9793 0.000431793 40.2818 -23.8598 7.28028 -1.44589 0.185466 44.6087 -6.40316 14.6725 1.5451 5.17743 -106.648 0.000499801 -4.20673 161.579 
12.3146 82.7709 -40.2665 -94.644 67.306 -78.4454 18.5509 9.89593 -28.1202 1.16219e-014 0 34.8143 -9.13248 -0.520067 3.59687 -3.49428e-015 1.27222e-014 -30.9626 -13.8762 -10.6279 -9.78349 3.20308e-015 -1.59028e-015 29.826 -7.18132 -0.864437 7.34583 3.39919e-014 3.18055e-015 -84.6545 -6.51075 1.53689 -7.61008 68.1089 -5.76722 2.93616 11.8329 0.939024 -0.197146 139.283 -30.2923 -35.6822 176.982 -24.0952 -97.3777 -0.00038401 40.4449 -24.0149 7.52043 -1.81198 0.239696 44.5005 -5.56581 14.9863 1.43748 4.753 -106.856 0.000611083 -4.31706 161.249 
12.3661 84.7666 -40.4127 -96.0351 68.6234 -76.5584 18.0766 10.3417 -25.7134 1.72207e-015 -9.54166e-015 29.38 -8.00403 -1.19499 8.17331 -1.28219e-014 9.54166e-015 -30.9267 -13.78 -9.97498 -10.5113 1.74792e-015 -1.59028e-015 28.041 -4.77256 -0.96355 12.5341 -4.5761e-016 6.36111e-015 -81.7706 -5.94678 1.82131 -8.09716 68.6029 -5.04204 4.42821 12.1655 1.11569 -0.240068 140.447 -27.7528 -35.4911 176.901 -25.7959 -97.0947 0.00657979 40.0536 -24.5783 7.56968 -2.16092 0.287122 44.2761 -4.34234 15.4797 1.30383 4.26119 -107.033 4.92458e-005 -4.3232 160.758 
12.5286 86.6954 -40.866 -98.2306 69.1228 -73.2991 19.6923 10.4239 -24.7916 2.16927e-015 -4.77083e-015 24.451 -9.05589 -2.34114 14.2524 -1.70058e-015 9.54166e-015 -30.9146 -15.5406 -9.02924 -11.3635 -1.08718e-015 1.59028e-015 25.4536 -0.925648 -0.291562 17.8165 -8.47601e-015 7.95139e-015 -77.9847 -5.52716 2.13045 -8.84919 68.535 -4.51597 4.98796 11.789 1.41281 -0.294783 141.412 -25.4204 -35.6646 176.906 -26.5291 -96.8996 7.2042e-005 38.2712 -25.2909 7.28281 -2.17082 0.27734 43.9683 -3.41445 16.2041 1.30368 4.16183 -107.405 -0.000169749 -4.10665 160.695 
12.9832 87.8295 -41.9295 -101.389 68.9811 -68.4476 22.3467 10.9165 -28.6658 -6.25298e-015 -1.59028e-015 23.8994 -11.6389 -3.71495 17.2467 -3.12996e-015 7.15625e-015 -30.9046 -15.7002 -6.6485 -13.4075 6.53542e-016 0 24.1476 0.102742 0.0409321 18.1708 -7.3851e-015 1.43125e-014 -71.8073 -5.47297 3.40593 -10.9051 68.5595 -3.84867 6.17941 11.5649 1.91401 -0.390421 140.911 -24.3978 -35.6481 177.276 -25.6642 -96.2581 0.00149463 37.5455 -25.5199 6.92191 -2.02508 0.246177 43.5411 -2.91557 16.6783 1.46845 4.60668 -107.704 -0.00024146 -4.26773 160.967 
13.3328 88.1971 -42.3478 -102.277 68.5167 -66.8735 21.3845 11.7047 -30.0863 -0 0 25.2245 -12.1783 -3.78387 16.9753 -1.00685e-014 7.95139e-015 -30.879 -17.1257 -6.70598 -14.2923 -6.68306e-016 -1.59028e-015 24.4825 -1.72441 -0.402605 15.7516 2.29044e-016 2.06736e-014 -68.0065 -5.95015 3.53842 -11.1624 67.9615 -3.97651 6.45015 11.189 2.42789 -0.478185 139.998 -24.292 -35.4236 177.511 -25.6799 -95.7275 0.00205826 37.0463 -25.9543 6.72711 -1.76558 0.208584 42.9005 -2.8829 17.328 1.45344 4.47485 -108.027 -0.000148267 -4.21935 160.904 
13.5703 87.5749 -42.5616 -100.282 68.2385 -69.983 18.3244 12.6026 -28.7728 -1.92958e-015 -3.18055e-015 27.5112 -11.8063 -3.32777 15.4607 -7.78891e-015 5.56597e-015 -30.8939 -18.851 -9.21525 -13.9939 2.00788e-015 -3.18055e-015 26.1967 -5.01097 -0.995191 12.3572 -1.56571e-014 1.90833e-014 -65.5347 -6.55551 2.84655 -9.50251 67.6887 -4.30322 6.24071 10.7755 2.72626 -0.518351 138.978 -25.0705 -34.9784 177.675 -25.9859 -95.2954 0.000467034 36.5425 -26.237 6.70203 -1.62143 0.190528 42.2282 -3.39233 17.9826 1.7249 5.16801 -108.439 0.000726317 -4.08348 161.144 
13.6957 86.115 -42.4636 -97.3854 68.5663 -75.0283 15.5808 13.4446 -26.6968 5.59184e-015 -3.18055e-015 30.7389 -11.6482 -2.69435 12.9453 -4.45297e-015 1.11319e-014 -30.9317 -19.4064 -13.1126 -13.5741 3.16357e-015 -3.18055e-015 29.4277 -8.16356 -1.22163 8.64444 -1.80591e-015 2.54444e-014 -65.1923 -6.77685 1.983 -6.88859 68.0948 -4.56658 5.96438 10.4986 2.76473 -0.511967 138.105 -26.7433 -34.3477 177.807 -26.3807 -94.9278 -0.00142412 36.3088 -26.3672 6.79342 -1.60755 0.19144 41.8335 -4.53606 18.3092 2.35957 6.99199 -108.72 0.00112768 -3.89674 161.828 
14.0925 83.5863 -42.894 -96.5553 70.0687 -76.6667 16.6247 14.1296 -28.1355 3.9205e-015 0 35.7804 -12.8433 -1.807 7.88247 -1.07817e-014 6.75868e-015 -30.9004 -17.3568 -16.1325 -15.1481 -3.17059e-015 3.18055e-015 34.7119 -9.38627 -0.693397 4.13319 -8.56855e-015 2.22639e-014 -69.6276 -6.2713 1.99615 -5.34201 68.9618 -4.83745 6.00883 10.5944 2.68275 -0.500999 137.578 -29.3607 -33.6172 177.94 -27.0472 -94.5252 0.000268219 37.1215 -26.6966 6.89185 -1.52465 0.184242 42.1082 -6.43754 17.8125 2.98277 8.95606 -108.527 0.000379021 -3.61183 162.598 
